REM MD5 4dcc3d3bf2e1372d3db86968e1738f0a
FILE "Creature Shock (Japan) (Disc 2).bin" BINARY
  TRACK 01 MODE2/2352
    INDEX 01 00:00:00
  TRACK 02 AUDIO
    INDEX 00 54:33:09
    INDEX 01 54:35:09
  TRACK 03 AUDIO
    INDEX 00 57:53:65
    INDEX 01 57:55:65
REM LEADOUT 61:02:53
